PathFileType	4	(X/Y/Z)	/Users/mathieubourgeois/Desktop/Analyse/Traitement/Sujet_08/Transformed_Static_Sujet_08_Tpose.trc
DataRate	CameraRate	NumFrames	NumMarkers	Units	OrigDataRate	OrigDataStartFrame	OrigNumFrames
120.000000	120.000000	6	35	mm	120.000000	283	324
Frame#	Time	RFHD			RANE			STRN			LANI			LKNE			T10			RHUM			RWRB			C7			LFWT			LTOE			LWRA			LBWT			RBWT			RFWT			LKNI			RKNI			RKNE			LANE			RANI			LHEE			RTOE			LHUM			LRAD			RRAD			RWRA			LWRB			LFHD			LBHD			RBHD			RSHO			LSHO			CLAV			LCAR			RCAR			
		X1	Y1	Z1	X2	Y2	Z2	X3	Y3	Z3	X4	Y4	Z4	X5	Y5	Z5	X6	Y6	Z6	X7	Y7	Z7	X8	Y8	Z8	X9	Y9	Z9	X10	Y10	Z10	X11	Y11	Z11	X12	Y12	Z12	X13	Y13	Z13	X14	Y14	Z14	X15	Y15	Z15	X16	Y16	Z16	X17	Y17	Z17	X18	Y18	Z18	X19	Y19	Z19	X20	Y20	Z20	X21	Y21	Z21	X22	Y22	Z22	X23	Y23	Z23	X24	Y24	Z24	X25	Y25	Z25	X26	Y26	Z26	X27	Y27	Z27	X28	Y28	Z28	X29	Y29	Z29	X30	Y30	Z30	X31	Y31	Z31	X32	Y32	Z32	X33	Y33	Z33	X34	Y34	Z34	X35	Y35	Z35	

284	2.358333333333333	-766.4318237304688	1637.808471679688	387.3334350585935	-844.6532592773438	82.17684936523439	204.8621215820311	-692.7601928710938	1250.765502929688	398.2339782714843	-591.298828125	92.04209136962892	231.0923919677734	-525.630615234375	499.8468933105469	297.1212158203124	-678.8450927734375	1214.844604492188	168.9211120605467	-1094.561279296875	1374.364990234375	254.3940734863279	-1344.482421875	1457.310302734375	247.2807159423826	-695.5804443359375	1468.254150390625	212.2524414062498	-554.826904296875	970.1350708007812	358.7023925781249	-527.9681396484375	34.62939453125002	399.4297180175781	-27.91359138488772	1407.111572265625	197.6965179443359	-617.3744506835938	1006.252563476562	208.2081146240233	-750.8192138671875	1005.79638671875	207.7446289062499	-792.871337890625	971.8770141601562	366.9703063964842	-626.7262573242188	439.5160522460938	252.6663665771483	-746.2745361328125	432.9499206542969	261.5809326171874	-849.572998046875	506.7301635742188	268.5332641601561	-512.1626586914062	79.9392776489258	191.2237243652343	-765.2108154296875	101.1324005126953	229.1101074218749	-559.2667236328125	52.50836181640626	154.3611755371093	-813.2867431640625	38.10960769653322	393.5301208496093	-287.4628295898438	1382.796752929688	254.9138641357421	-280.2616577148438	1427.265625	190.7135772705077	-1102.446166992188	1411.544677734375	200.3545837402341	-1350.791625976562	1403.209594726562	206.2294158935544	-34.9617614746094	1478.099609375	222.959991455078	-638.369384765625	1650.960693359375	384.7572631835936	-628.6129760742188	1633.202758789062	230.6785278320311	-767.01416015625	1630.565063476562	219.4369201660154	-800.0230102539062	1471.191528320312	238.866256713867	-580.5606079101562	1476.408447265625	234.4277496337889	-695.4111938476562	1415.615844726562	340.4973754882811	63.4360771179199	1457.069702148438	185.4262084960937	-1452.144165039062	1430.764770507812	209.6892395019529	
285	2.366666666666667	-767.0904541015625	1638.05712890625	387.604064941406	-844.6868896484375	82.18006896972658	204.8319244384764	-692.6672973632812	1250.704833984375	398.2822875976561	-591.3128662109375	92.04225158691408	231.0744628906249	-525.7008056640625	499.85009765625	297.0475769042968	-678.8707885742188	1214.935791015625	168.9468383789061	-1094.501098632812	1374.301391601562	254.4793243408201	-1344.455200195312	1457.175659179688	247.3588714599607	-695.5436401367188	1468.248168945312	212.3532714843748	-554.903564453125	970.1302490234375	358.545196533203	-527.97607421875	34.6293411254883	399.4192199707031	-27.89811325073245	1406.882690429688	197.6673736572265	-617.4393920898438	1006.262023925781	208.0574340820311	-750.8991088867188	1005.803649902344	207.6324310302733	-792.92626953125	971.9100341796875	366.8541564941405	-626.7705078125	439.5142822265625	252.566436767578	-746.3480224609375	432.9564208984375	261.6288452148436	-849.6278686523438	506.7747802734375	268.4899597167967	-512.1656494140625	79.94285583496095	191.2108306884765	-765.2656860351562	101.1369171142578	229.1251831054687	-559.2737426757812	52.50665283203126	154.3455047607421	-813.2898559570312	38.12977600097658	393.5106201171874	-287.4220886230469	1382.648803710938	254.9273376464843	-280.2277526855469	1427.1943359375	190.7908477783202	-1102.38525390625	1411.524536132812	200.491744995117	-1350.749877929688	1403.071166992188	206.2810211181638	-34.88189315795901	1477.873168945312	222.9991607666015	-638.4717407226562	1651.194458007812	384.5986022949217	-628.5345458984375	1633.126220703125	230.5427856445311	-766.96533203125	1630.404663085938	219.2076873779295	-799.9791870117188	1471.20068359375	239.0579376220701	-580.4893188476562	1476.42236328125	234.6148376464842	-695.3649291992188	1415.597045898438	340.6331481933592	63.49040603637693	1456.804077148438	185.3984069824218	-1452.106323242188	1430.574951171875	209.7332916259763	
286	2.375	-767.1835327148438	1638.272094726562	387.3619384765623	-844.7127685546875	82.1808319091797	204.8164215087889	-692.6057739257812	1250.634155273438	398.3267822265624	-591.3289184570312	92.03723144531251	231.0715942382812	-525.7695922851562	499.8517150878906	296.9849243164061	-678.8871459960938	1215.031982421875	168.9523925781248	-1094.453002929688	1374.248168945312	254.5599365234373	-1344.430419921875	1457.04345703125	247.4656677246091	-695.5028686523438	1468.25634765625	212.4898223876951	-554.972412109375	970.1353759765625	358.3937072753905	-527.9744873046875	34.63689804077151	399.4223327636718	-27.85323715209963	1406.658447265625	197.6222076416015	-617.515380859375	1006.290466308594	207.9086456298827	-750.9735717773438	1005.830017089844	207.4860382080077	-792.9923095703125	971.9495849609375	366.7232971191405	-626.8285522460938	439.5202941894531	252.482452392578	-746.4014892578125	432.9695739746094	261.6977233886718	-849.6856079101562	506.8008422851562	268.4252319335936	-512.1749877929688	79.93574523925783	191.2283172607421	-765.3099975585938	101.1468048095703	229.1200103759765	-559.252197265625	52.50986480712891	154.3346862792968	-813.2928466796875	38.14062881469729	393.4805908203124	-287.3900756835938	1382.480346679688	254.9328308105468	-280.1948852539062	1427.127807617188	190.8487854003905	-1102.322265625	1411.517333984375	200.6117248535154	-1350.689575195312	1402.970092773438	206.3365478515622	-34.78435134887698	1477.590698242188	223.0367584228515	-638.5690307617188	1651.434936523438	384.4676208496092	-628.4816284179688	1633.022094726562	230.4522705078123	-766.8855590820312	1630.259643554688	218.9779968261717	-799.9393310546875	1471.227294921875	239.245880126953	-580.4312744140625	1476.448608398438	234.8135681152342	-695.3278198242188	1415.5751953125	340.773468017578	63.53240585327146	1456.460815429688	185.3333740234374	-1452.037841796875	1430.427001953125	209.7582550048826	
287	2.383333333333333	-767.291015625	1638.465209960938	387.1219787597654	-844.7476806640625	82.17176055908205	204.8072662353514	-692.5369873046875	1250.565795898438	398.3727416992186	-591.3510131835938	92.01676177978517	231.0651245117187	-525.73486328125	499.8568420410156	297.1715087890624	-678.91064453125	1215.128540039062	168.9577636718748	-1094.401123046875	1374.194458007812	254.6695404052732	-1344.3994140625	1456.931274414062	247.5624237060544	-695.458984375	1468.253051757812	212.6383514404295	-555.0581665039062	970.1506958007812	358.2652893066405	-527.9696655273438	34.64066314697268	399.4414062499999	-27.84783363342288	1406.35888671875	197.7112274169921	-617.6002197265625	1006.312072753906	207.740753173828	-751.0405883789062	1005.84326171875	207.3784942626952	-793.0606689453125	971.9754028320312	366.580352783203	-626.8932495117188	439.505615234375	252.4475708007811	-746.4520874023438	432.9700012207031	261.7412109374999	-849.7387084960938	506.8266906738281	268.3611755371092	-512.1907348632812	79.96238708496095	191.2013397216796	-765.3545532226562	101.1438293457031	229.1266326904296	-559.2801513671875	52.4933204650879	154.3482666015624	-813.2964477539062	38.1595039367676	393.4707946777343	-287.3710327148438	1382.290405273438	254.9373931884764	-280.1578063964844	1427.016845703125	190.9102783203124	-1102.266357421875	1411.494506835938	200.723678588867	-1350.63623046875	1402.888061523438	206.4464874267576	-34.69396591186526	1477.281616210938	223.081314086914	-638.6766967773438	1651.687255859375	384.2972717285155	-628.4161376953125	1632.889892578125	230.3731536865232	-766.7999877929688	1630.13037109375	218.7477111816404	-799.899169921875	1471.257446289062	239.4611816406248	-580.3694458007812	1476.463134765625	235.0186462402342	-695.294189453125	1415.550048828125	340.9188842773436	63.60706329345701	1456.119506835938	185.2892913818359	-1452.007690429688	1430.289916992188	209.8287048339841	
288	2.391666666666667	-767.3575439453125	1638.695556640625	386.8535461425779	-844.743408203125	82.17022705078126	204.7870330810546	-692.4952392578125	1250.50048828125	398.4392700195311	-591.3695678710938	92.02040863037111	231.0626831054687	-525.8058471679688	499.8652038574219	297.1422119140624	-678.9292602539062	1215.221069335938	168.9448089599608	-1094.356079101562	1374.161010742188	254.7677612304685	-1344.378295898438	1456.8388671875	247.6436309814451	-695.4256591796875	1468.275634765625	212.8008880615233	-555.1404418945312	970.1563720703125	358.1429748535155	-527.98388671875	34.63326644897463	399.4310607910156	-27.85703277587893	1406.070434570312	197.7081909179687	-617.6747436523438	1006.328552246094	207.5958404541014	-751.1153564453125	1005.867248535156	207.2082519531249	-793.1317749023438	972.015380859375	366.4648437499998	-626.9561157226562	439.4989318847656	252.4158172607421	-746.4978637695312	432.9803466796875	261.7747192382811	-849.7841796875	506.8576354980469	268.2818908691405	-512.20947265625	79.96115875244142	191.2107696533203	-765.38671875	101.1493301391602	229.1426696777343	-559.2944946289062	52.49907684326173	154.3588104248046	-813.3004760742188	38.17475891113283	393.4544067382811	-287.3410339355469	1382.094848632812	254.9465789794921	-280.122802734375	1426.938842773438	190.9860687255858	-1102.227661132812	1411.4814453125	200.843811035156	-1350.596435546875	1402.784912109375	206.5490264892576	-34.62012100219729	1476.947143554688	223.1729278564452	-638.7825927734375	1651.909423828125	384.1585083007811	-628.3342895507812	1632.754150390625	230.3080902099607	-766.6984252929688	1629.974243164062	218.5584564208982	-799.8619384765625	1471.27880859375	239.6737823486326	-580.2918090820312	1476.474975585938	235.2360382080076	-695.27197265625	1415.52587890625	341.0636596679686	63.71483612060545	1455.763427734375	185.2305603027343	-1451.977416992188	1430.184692382812	209.8750457763669	
289	2.4	-767.4111938476562	1639.144409179688	386.5238342285154	-844.759521484375	82.16720581054689	204.7672576904296	-692.4346923828125	1250.42919921875	398.4966430664061	-591.4034423828125	91.99659729003908	231.0624694824218	-525.8876342773438	499.8680725097656	297.1060791015624	-678.939453125	1215.294555664062	168.9760894775389	-1094.31201171875	1374.131713867188	254.8671569824216	-1344.3603515625	1456.739990234375	247.7488098144529	-695.3790893554688	1468.283203125	212.9437713623045	-555.2203369140625	970.157470703125	358.0347900390624	-527.9777221679688	34.63467407226565	399.4452514648437	-27.8322620391846	1405.72021484375	197.6194305419921	-617.771240234375	1006.320617675781	207.4557342529295	-751.1746826171875	1005.875671386719	207.097457885742	-793.1966552734375	972.0509643554688	366.3349609374998	-627.0220336914062	439.4832458496094	252.4068756103514	-746.544189453125	432.984375	261.786163330078	-849.839599609375	506.8783264160156	268.1932373046873	-512.2357788085938	79.96730041503908	191.2217559814453	-765.4052124023438	101.1512985229492	229.1331329345702	-559.32666015625	52.4939193725586	154.355239868164	-813.2946166992188	38.17531585693362	393.4267272949218	-287.3167724609376	1381.856201171875	254.9313964843749	-280.0892944335938	1426.825317382812	191.0637359619139	-1102.179077148438	1411.453002929688	200.9769439697263	-1350.56787109375	1402.729858398438	206.6503143310544	-34.5314636230469	1476.562255859375	223.2531433105468	-638.8766479492188	1652.15576171875	384.0284423828123	-628.2619018554688	1632.594116210938	230.2637329101561	-766.6036376953125	1629.807006835938	218.3096618652342	-799.8271484375	1471.311401367188	239.8688201904295	-580.2291870117188	1476.478515625	235.4642486572264	-695.2398071289062	1415.499145507812	341.2134704589842	63.76778411865232	1455.383911132812	185.219512939453	-1451.956909179688	1430.08154296875	209.960998535156	
